<svg width="15" height="14" viewBox="0 0 15 14" fill="none" xmlns="http://www.w3.org/2000/svg">
<path d="M1.32573 5.46889C1.75501 3.21189 1.96965 2.08339 2.78453 1.41669C3.59941 0.75 4.76411 0.75 7.09349 0.75H7.6225C9.95189 0.75 11.1166 0.75 11.9315 1.41669C12.7463 2.08339 12.961 3.21189 13.3903 5.46889C13.9939 8.64264 14.2957 10.2295 13.4158 11.2748C12.5358 12.32 10.898 12.32 7.62251 12.32H7.09349C3.81796 12.32 2.1802 12.32 1.30023 11.2748C0.420269 10.2295 0.722088 8.64264 1.32573 5.46889Z" stroke="black" stroke-width="1.5"/>
<path d="M5.47009 3.41998C5.74491 4.457 6.48645 5.19998 7.35809 5.19998C8.22974 5.19998 8.97127 4.457 9.24609 3.41998" stroke="black" stroke-width="1.5" stroke-linecap="round"/>
</svg>
